<svg class="icon" viewBox="0 0 1024 1024" xmlns="http://www.w3.org/2000/svg" width="15" height="15"><defs><style/></defs><path d="M987.429 412.367q0 12.581-14.848 27.429L765.148 642.073 814.3 927.769q.585 3.986.585 11.447 0 11.995-5.998 20.297t-17.445 8.302q-10.862 0-22.857-6.839L512 826.137 255.415 960.976q-12.581 6.839-22.857 6.839-11.995 0-17.993-8.302t-5.998-20.297q0-3.438 1.134-11.447l49.152-285.696L50.835 439.796q-14.299-15.433-14.299-27.429 0-21.138 32-26.295l286.866-41.728L483.987 84.358q10.862-23.442 28.014-23.442t28.014 23.442L668.6 344.344l286.866 41.728q32 5.157 32 26.295z" fill="#d9d9d9"/></svg>